# xmcd
#
# Track frame offsets: 
#        150
#        3719
#        18836
#        30218
#        44429
#        53329
#        67041
#        91924
#        106809
#        122566
#        135963
#        154759
#        170440
#
# Disc length: 2515 seconds
#
# Revision: 0
# Processed by: cddbd v1.5.1PL2 Copyright (c) Steve Scherf et al.
# Submitted via: ExactAudioCopy v0.95a4
#
DISCID=9109d10d
DTITLE=Uncle Tupelo - Mississippi Nights - St. Louis - 12-3-93 - Disc 
DTITLE=1
DYEAR=1993
DGENRE=Alternative
TTITLE0=Tuning
TTITLE1=Chickamauga
TTITLE2=Watch Me Fall
TTITLE3=Grindstone
TTITLE4=Satan, Your Kingdom Must Come Down
TTITLE5=True to Life
TTITLE6=Anodyne
TTITLE7=Long Cut
TTITLE8=Slate
TTITLE9=Atomic Power
TTITLE10=New Madrid
TTITLE11=Sandusky
TTITLE12=Steal the Crumbs
EXTD=
EXTT0=
EXTT1=
EXTT2=
EXTT3=
EXTT4=
EXTT5=
EXTT6=
EXTT7=
EXTT8=
EXTT9=
EXTT10=
EXTT11=
EXTT12=
PLAYORDER=
